<?xml version="1.0" encoding="utf-8"?>
<!-- Generator: Adobe Illustrator 16.0.0, SVG Export Plug-In . SVG Version: 6.00 Build 0)  -->
<!DOCTYPE svg PUBLIC "-//W3C//DTD SVG 1.1//EN" "http://www.w3.org/Graphics/SVG/1.1/DTD/svg11.dtd">
<svg version="1.1" id="Layer_1" xmlns="http://www.w3.org/2000/svg" xmlns:xlink="http://www.w3.org/1999/xlink" x="0px" y="0px"
	 width="276.702px" height="47.601px" viewBox="0 0 276.702 47.601" enable-background="new 0 0 276.702 47.601"
	 xml:space="preserve">
<g>
	<path fill="#DC143C" d="M11.73,45.968c-1.156-1.088-1.734-2.811-1.734-5.168V5.101H0V0h15.776v40.46
		c0,0.726,0.181,1.248,0.544,1.564c0.362,0.317,0.974,0.476,1.836,0.476H27.2v5.101H15.776
		C14.234,47.601,12.886,47.056,11.73,45.968z"/>
	<path fill="#DC143C" d="M55.576,45.017c-1.882,1.723-4.794,2.584-8.738,2.584h-2.244c-3.944,0-6.857-0.861-8.738-2.584
		c-1.881-1.723-2.822-4.488-2.822-8.297v-12.24c0-3.808,0.94-6.572,2.822-8.295c1.881-1.723,4.794-2.584,8.738-2.584h2.244
		c3.944,0,6.856,0.861,8.738,2.584c1.88,1.723,2.822,4.487,2.822,8.295v12.24C58.398,40.528,57.457,43.294,55.576,45.017z
		 M51.326,19.856c-0.862-0.771-2.131-1.156-3.808-1.156h-3.604c-1.678,0-2.947,0.386-3.808,1.156
		c-0.861,0.771-1.292,1.859-1.292,3.264v14.96c0,1.405,0.431,2.493,1.292,3.265c0.861,0.771,2.13,1.155,3.808,1.155h3.604
		c1.677,0,2.946-0.385,3.808-1.155c0.86-0.771,1.292-1.859,1.292-3.265V23.12C52.618,21.716,52.187,20.628,51.326,19.856z"/>
	<path fill="#DC143C" d="M87.542,45.017c-1.882,1.723-4.794,2.584-8.738,2.584h-2.244c-3.944,0-6.857-0.861-8.738-2.584
		C65.941,43.294,65,40.528,65,36.72v-12.24c0-3.808,0.94-6.572,2.822-8.295c1.881-1.723,4.794-2.584,8.738-2.584h2.244
		c3.944,0,6.856,0.861,8.738,2.584c1.88,1.723,2.822,4.487,2.822,8.295v12.24C90.364,40.528,89.423,43.294,87.542,45.017z
		 M83.292,19.856c-0.862-0.771-2.131-1.156-3.808-1.156H75.88c-1.678,0-2.947,0.386-3.808,1.156
		c-0.861,0.771-1.292,1.859-1.292,3.264v14.96c0,1.405,0.431,2.493,1.292,3.265c0.861,0.771,2.13,1.155,3.808,1.155h3.604
		c1.677,0,2.946-0.385,3.808-1.155c0.86-0.771,1.292-1.859,1.292-3.265V23.12C84.584,21.716,84.153,20.628,83.292,19.856z"/>
	<path fill="#DC143C" d="M103.352,33.048v14.553h-5.78V0h5.78v25.704l10.676-12.104h7.276l-11.832,13.396l12.784,20.604h-7.14
		l-9.996-16.592L103.352,33.048z"/>
	<path fill="#DC143C" d="M131.095,45.151c1.792,1.633,4.75,2.449,8.875,2.449h13.6V0h-12.784c-4.034,0-6.992,0.815-8.874,2.448
		c-1.881,1.632-2.822,4.352-2.822,8.16v3.875c0,3.492,1.248,6.121,3.74,7.889c-2.946,1.632-4.42,4.42-4.42,8.364v6.12
		C128.409,40.755,129.305,43.521,131.095,45.151z M136.195,6.256c0.793-0.771,2.051-1.155,3.774-1.155h7.684v15.027h-7.684
		c-1.405,0-2.584-0.453-3.537-1.359s-1.428-2.108-1.428-3.604V9.996C135.005,8.274,135.402,7.027,136.195,6.256z M135.685,26.554
		c0.907-0.884,2.108-1.326,3.604-1.326h8.364V42.5h-8.297c-1.722,0-2.991-0.396-3.807-1.19c-0.816-0.792-1.224-2.051-1.224-3.773
		v-7.412C134.325,28.628,134.779,27.438,135.685,26.554z"/>
	<path fill="#DC143C" d="M181.116,47.056c-0.703-0.361-1.305-0.86-1.803-1.496c-1.043,1.36-2.426,2.041-4.148,2.041h-6.051
		c-3.445,0-5.951-0.691-7.514-2.074c-1.564-1.383-2.348-3.751-2.348-7.106v-1.36c0-7.025,3.309-10.539,9.93-10.539h8.432v-3.4
		c0-1.404-0.432-2.492-1.293-3.264c-0.861-0.771-2.131-1.156-3.807-1.156h-10.541v-5.1h9.859c3.945,0,6.857,0.861,8.738,2.584
		s2.822,4.487,2.822,8.295V40.8c0,0.68,0.26,1.19,0.781,1.53s1.395,0.511,2.619,0.511v4.76h-3.74
		C182.464,47.601,181.817,47.419,181.116,47.056z M177.069,41.548c0.363-0.635,0.545-1.45,0.545-2.447v-7.48h-8.5
		c-1.18,0-2.154,0.386-2.924,1.156c-0.771,0.771-1.156,1.746-1.156,2.924v3.4c0,1.179,0.271,2.039,0.816,2.584
		c0.543,0.543,1.404,0.815,2.584,0.815h6.051C175.847,42.5,176.706,42.184,177.069,41.548z"/>
	<path fill="#DC143C" d="M196.457,45.05c-1.859-1.699-2.788-4.477-2.788-8.33v-12.24c0-3.808,0.94-6.572,2.822-8.295
		c1.88-1.723,4.794-2.584,8.737-2.584h8.772v5.1h-9.452c-1.678,0-2.947,0.386-3.808,1.156c-0.862,0.771-1.292,1.859-1.292,3.264
		v14.96c0,1.405,0.43,2.493,1.292,3.265c0.86,0.771,2.13,1.155,3.808,1.155h9.452v5.101h-8.772
		C201.239,47.601,198.315,46.75,196.457,45.05z"/>
	<path fill="#DC143C" d="M227.919,33.048v14.553h-5.779V0h5.779v25.704l10.677-12.104h7.275l-11.832,13.396l12.784,20.604h-7.14
		l-9.996-16.592L227.919,33.048z"/>
	<path fill="#DC143C" d="M258.817,42.5V18.7h-4.964v-5.1h10.404v1.836c1.496-1.225,3.309-1.836,5.439-1.836h7.005v5.439h-7.685
		c-1.451,0-2.539,0.465-3.264,1.395c-0.726,0.93-1.111,1.869-1.156,2.821V42.5h7.412v5.101h-18.156V42.5H258.817z"/>
</g>
</svg>
