<?xml version="1.0" encoding="utf-8"?>
<!-- Generator: Adobe Illustrator 16.0.0, SVG Export Plug-In . SVG Version: 6.00 Build 0)  -->
<!DOCTYPE svg PUBLIC "-//W3C//DTD SVG 1.1//EN" "http://www.w3.org/Graphics/SVG/1.1/DTD/svg11.dtd">
<svg version="1.1" id="Layer_1" focusable="false" xmlns="http://www.w3.org/2000/svg" xmlns:xlink="http://www.w3.org/1999/xlink"
	 x="0px" y="0px" width="175px" height="200px" viewBox="212.5 0 175 200" enable-background="new 212.5 0 175 200"
	 xml:space="preserve">
<path fill="#DC143C" d="M225,181.25c0,10.355,8.395,18.75,18.75,18.75l0,0h112.5c10.355,0,18.75-8.395,18.75-18.75l0,0V50H225
	V181.25z M331.25,81.25c0-3.452,2.799-6.25,6.25-6.25s6.25,2.798,6.25,6.25v87.5c0,3.451-2.799,6.25-6.25,6.25
	s-6.25-2.799-6.25-6.25V81.25z M293.75,81.25c0-3.452,2.798-6.25,6.25-6.25c3.451,0,6.25,2.798,6.25,6.25v87.5
	c0,3.451-2.799,6.25-6.25,6.25c-3.452,0-6.25-2.799-6.25-6.25V81.25z M256.25,81.25c0-3.452,2.798-6.25,6.25-6.25
	s6.25,2.798,6.25,6.25v87.5c0,3.451-2.798,6.25-6.25,6.25s-6.25-2.799-6.25-6.25V81.25z M381.25,12.5h-46.875l-3.672-7.305
	c-1.586-3.186-4.84-5.198-8.398-5.195h-44.648c-3.552-0.014-6.799,2.004-8.359,5.195l-3.672,7.305H218.75
	c-3.452,0-6.25,2.798-6.25,6.25v12.5c0,3.452,2.798,6.25,6.25,6.25h162.5c3.451,0,6.25-2.798,6.25-6.25v-12.5
	C387.5,15.298,384.701,12.5,381.25,12.5z"/>
</svg>
